<svg width="24" height="24" viewBox="0 0 24 24" fill="none" xmlns="http://www.w3.org/2000/svg">
<path fill-rule="evenodd" clip-rule="evenodd" d="M20.9752 1.26427C21.1054 1.8718 20.7184 2.46983 20.1109 2.60002L13.1252 4.09696V19.5H16.8752C17.4965 19.5 18.0002 20.0037 18.0002 20.625C18.0002 21.2463 17.4965 21.75 16.8752 21.75H12.002C12.0014 21.75 12.0008 21.75 12.0002 21.75C11.9995 21.75 11.9989 21.75 11.9983 21.75H7.12515C6.50383 21.75 6.00015 21.2463 6.00015 20.625C6.00015 20.0037 6.50383 19.5 7.12515 19.5H10.8752V4.5791L4.36087 5.97502C3.75334 6.1052 3.15531 5.71824 3.02513 5.11071C2.89494 4.50318 3.2819 3.90515 3.88943 3.77496L19.6394 0.399961C20.247 0.269776 20.845 0.65674 20.9752 1.26427ZM17.4644 11.3525L17.475 11.3789C17.8063 12.207 18.6083 12.75 19.5001 12.75C20.392 12.75 21.194 12.207 21.5252 11.3789L21.5358 11.3525L19.5001 7.28116L17.4644 11.3525ZM19.5001 4.50001C18.8106 4.50001 18.1804 4.88955 17.872 5.50624L15.3014 10.6475C15.1098 11.0307 15.0912 11.4776 15.2503 11.8754L15.386 12.2146C16.0589 13.8969 17.6882 15 19.5001 15C21.312 15 22.9414 13.8969 23.6143 12.2146L23.75 11.8754C23.9091 11.4776 23.8905 11.0307 23.6989 10.6475L21.1282 5.50624C20.8199 4.88955 20.1896 4.50001 19.5001 4.50001ZM2.46445 14.3525L2.47502 14.3789C2.80625 15.207 3.60826 15.75 4.50012 15.75C5.39198 15.75 6.19399 15.207 6.52522 14.3789L6.5358 14.3525L4.50012 10.2812L2.46445 14.3525ZM4.50012 7.50001C3.81065 7.50001 3.18035 7.88955 2.87201 8.50624L0.301365 13.6475C0.109753 14.0307 0.0911662 14.4776 0.250291 14.8754L0.38595 15.2146C1.05887 16.8969 2.68823 18 4.50012 18C6.31202 18 7.94137 16.8969 8.61429 15.2146L8.74995 14.8754C8.90908 14.4776 8.89049 14.0307 8.69888 13.6475L6.12824 8.50624C5.8199 7.88955 5.1896 7.50001 4.50012 7.50001Z" fill="#B963FF"/>
</svg>
