<svg width="24" height="24" viewBox="0 0 24 24" fill="none" xmlns="http://www.w3.org/2000/svg">
<path fill-rule="evenodd" clip-rule="evenodd" d="M20.25 12C20.25 16.5563 16.5563 20.25 12 20.25C7.44365 20.25 3.75 16.5563 3.75 12C3.75 7.44365 7.44365 3.75 12 3.75C16.5563 3.75 20.25 7.44365 20.25 12ZM22.5 12C22.5 17.799 17.799 22.5 12 22.5C6.20101 22.5 1.5 17.799 1.5 12C1.5 6.20101 6.20101 1.5 12 1.5C17.799 1.5 22.5 6.20101 22.5 12ZM12 6C11.3787 5.99999 10.875 6.50366 10.875 7.12498C10.875 7.7463 11.3787 8.24999 12 8.25C14.071 8.25003 15.7499 9.92895 15.7499 12C15.7499 12.6213 16.2536 13.125 16.8749 13.125C17.4962 13.125 17.9999 12.6213 17.9999 12C17.9999 8.68632 15.3137 6.00005 12 6Z" fill="#B963FF"/>
</svg>
