<svg width="19" height="18" viewBox="0 0 19 18" fill="none" xmlns="http://www.w3.org/2000/svg">
<path fill-rule="evenodd" clip-rule="evenodd" d="M2.5 6V5C2.5 3.34315 3.84315 2 5.5 2H13.5C15.1569 2 16.5 3.34315 16.5 5V6V8H10.5V14V15V16H5.5C3.84315 16 2.5 14.6569 2.5 13V12V10V8V6ZM4.5 5C4.5 4.44772 4.94772 4 5.5 4H13.5C14.0523 4 14.5 4.44772 14.5 5V6H10.5H8.5H4.5V5ZM4.5 8V10H8.5V8H4.5ZM4.5 12V13C4.5 13.5523 4.94772 14 5.5 14H8.5V12H4.5Z" fill="white"/>
<path d="M14.3321 11.0899L16.1133 12.2774C16.3549 12.4384 16.5 12.7096 16.5 13C16.5 13.2904 16.3549 13.5616 16.1132 13.7227L14.3321 14.9101C14.2441 14.9687 14.1408 15 14.0352 15C13.7396 15 13.5 14.7604 13.5 14.4648V11.5352C13.5 11.2396 13.7396 11 14.0352 11C14.1408 11 14.2441 11.0313 14.3321 11.0899Z" stroke="white" stroke-width="2"/>
</svg>
