<svg width="42" height="48" viewBox="0 0 42 48" fill="none" xmlns="http://www.w3.org/2000/svg">
<path fill-rule="evenodd" clip-rule="evenodd" d="M15.6027 2.73949C12.7287 4.22739 10.3773 5.48645 10.3778 5.53766C10.3791 5.66984 17.2756 9.14092 17.5204 9.13246C17.6317 9.12876 18.4394 8.75923 19.3153 8.31139L20.9079 7.49729L22.6472 8.38583L24.3865 9.27453L27.2349 8.00253C31.5268 6.08582 31.9726 5.87578 31.9027 5.80522C31.81 5.71159 30.2706 4.88969 26.094 2.70443C24.0755 1.64827 22.1164 0.612743 21.7403 0.403204C21.3642 0.193665 21.0052 0.0251041 20.9425 0.0283669C20.8798 0.0316297 18.4768 1.25165 15.6027 2.73949ZM2.99723 9.22675L0.00539761 10.7626V17.5031C0.00539761 21.2105 0.0446833 24.2436 0.0928722 24.2436C0.140894 24.2436 1.61288 23.6095 3.36388 22.8344L6.54752 21.4252V14.3202L8.10325 15.1626C9.30208 15.8111 10.5016 16.4583 11.7019 17.1042L13.7448 18.2034L14.6538 17.7949C15.2239 17.5383 15.7928 17.2792 16.3606 17.0176C16.7994 16.8145 17.8765 16.3324 18.7541 15.946C19.6317 15.5594 20.444 15.1707 20.5592 15.0821C20.7122 14.9644 18.8463 13.9397 13.6578 11.2917C9.74674 9.29571 6.42132 7.66895 6.26796 7.67675C6.1146 7.68454 4.64278 8.38196 2.99723 9.22675ZM32.4419 9.65805C30.4043 10.5723 28.7357 11.3568 28.7338 11.4015C28.732 11.4462 29.8426 12.1025 31.2019 12.8597C32.5611 13.617 33.6732 14.2772 33.6732 14.3269C33.6732 14.3765 32.4704 14.9557 31.0006 15.6142C29.5305 16.2726 25.8148 17.9402 22.7432 19.3202L12.4513 23.9436C9.86243 25.1067 7.52883 26.155 7.26557 26.2735C1.97758 28.6526 0.524124 29.3127 0.324524 29.426C0.123811 29.5401 0.0783488 30.2029 0.0426244 33.5295L0 37.4971L2.67543 38.8519L5.35081 40.2066L9.06063 38.5427C11.1011 37.6276 12.7705 36.8309 12.7705 36.7722C12.7705 36.7137 12.3934 36.4696 11.9328 36.2295C11.4719 35.9893 10.5206 35.4578 9.81853 35.048C9.1165 34.6381 8.41648 34.2621 8.26279 34.2123C8.10915 34.1625 7.98568 34.0756 7.98818 34.0188C7.99074 33.9622 9.62438 33.1911 11.6183 32.3049C15.491 30.5841 18.4548 29.2578 24.8175 26.3982C27.6627 25.1198 30.5082 23.8421 33.3541 22.5652C35.8552 21.4432 38.7633 20.1329 39.8164 19.6533L41.7312 18.7813L41.7738 14.7686L41.8165 10.756L39.103 9.37175C37.6105 8.61052 36.3347 7.98954 36.2679 7.9918C36.201 7.9939 34.4794 8.74363 32.4419 9.65805ZM41.0042 24.1346C40.6043 24.3287 39.8145 24.6921 39.249 24.9421C38.6835 25.1922 37.6105 25.6734 36.8645 26.0116L35.5082 26.6264L35.4772 30.1493C35.4602 32.0868 35.3884 33.6634 35.3177 33.6532C35.1572 33.6295 32.6152 32.3339 30.0599 30.9731C28.2157 29.9911 28.0998 29.9521 27.6665 30.1654C27.4159 30.2887 25.9185 30.9562 24.3388 31.6488C22.7591 32.3414 21.4151 32.9533 21.3519 33.0087C21.2889 33.064 24.4682 34.7765 28.4172 36.8145L35.5971 40.5199L38.6642 38.9431C40.3509 38.0759 41.7853 37.285 41.8513 37.1855C42 36.9618 41.9873 23.7509 41.8384 23.7688C41.7795 23.7758 41.404 23.9405 41.0042 24.1346ZM24.0197 39.6408C23.4877 39.8681 22.9558 40.0957 22.4241 40.3237C20.8183 41.0141 21.133 41.037 19.2227 40.0919C17.9504 39.4624 17.4019 39.2682 17.1639 39.3625C16.9853 39.4332 15.4486 40.1203 13.7486 40.8894C12.0487 41.6585 10.599 42.2877 10.5268 42.2877C9.81363 42.2877 10.9993 42.9917 15.5747 45.2854L20.9404 47.9752L23.1981 46.8675C24.4398 46.2582 26.9443 45.0382 28.7638 44.1563C30.5831 43.2743 32.0492 42.5297 32.0218 42.5016C31.9941 42.4737 30.4697 41.6957 28.6339 40.7728L25.2962 39.095L24.0197 39.6408Z" fill="#752E99"/>
</svg>
