<svg width="32" height="32" viewBox="0 0 32 32" fill="none" xmlns="http://www.w3.org/2000/svg">
<path fill-rule="evenodd" clip-rule="evenodd" d="M9.41251 6.78017C9.13892 6.92069 8.82872 7 8.5 7C7.39543 7 6.5 6.10457 6.5 5C6.5 3.89543 7.39543 3 8.5 3C9.60457 3 10.5 3.89543 10.5 5C10.5 5.68614 10.1545 6.29158 9.62795 6.65182C9.59883 6.66606 9.56998 6.68133 9.54144 6.69764C9.49662 6.72324 9.45363 6.75081 9.41251 6.78017ZM9.62788 9.87227C9.26541 9.95584 8.88786 10 8.5 10C5.73858 10 3.5 7.76142 3.5 5C3.5 2.23858 5.73858 0 8.5 0C11.2614 0 13.5 2.23858 13.5 5C13.5 6.28819 13.0128 7.46259 12.2127 8.34904L13.9091 11.3176C14.5694 11.1112 15.2717 11 16 11C17.6177 11 19.1072 11.5487 20.2926 12.4702L24.7364 8.76705C24.5837 8.37415 24.5 7.94686 24.5 7.5C24.5 5.567 26.067 4 28 4C29.933 4 31.5 5.567 31.5 7.5C31.5 9.433 29.933 11 28 11C27.6302 11 27.2739 10.9427 26.9393 10.8364L22.214 14.7741C22.7162 15.7395 23 16.8366 23 18C23 19.1135 22.74 20.1663 22.2774 21.101L24.1945 22.6346C24.8688 22.2316 25.6574 22 26.5 22C28.9853 22 31 24.0147 31 26.5C31 28.9853 28.9853 31 26.5 31C24.0147 31 22 28.9853 22 26.5C22 25.9525 22.0978 25.4277 22.2769 24.9424L20.4023 23.4427C19.1997 24.4166 17.668 25 16 25C12.6489 25 9.84776 22.6452 9.16109 19.5H6.66318C6.10145 20.6825 4.8962 21.5 3.5 21.5C1.567 21.5 0 19.933 0 18C0 16.067 1.567 14.5 3.5 14.5C4.8962 14.5 6.10145 15.3175 6.66318 16.5H9.16109C9.47761 15.0502 10.2434 13.7684 11.3053 12.8077L9.62788 9.87227ZM20 18C20 20.2091 18.2091 22 16 22C13.7909 22 12 20.2091 12 18C12 15.7909 13.7909 14 16 14C18.2091 14 20 15.7909 20 18ZM26.5 28C27.3284 28 28 27.3284 28 26.5C28 25.6716 27.3284 25 26.5 25C25.6716 25 25 25.6716 25 26.5C25 27.3284 25.6716 28 26.5 28Z" fill="#B963FF"/>
</svg>
