<svg width="24" height="24" viewBox="0 0 24 24" fill="none" xmlns="http://www.w3.org/2000/svg">
<mask id="mask0_4_165" style="mask-type:alpha" maskUnits="userSpaceOnUse" x="0" y="0" width="24" height="24">
<rect width="24" height="24" fill="#D9D9D9"/>
</mask>
<g mask="url(#mask0_4_165)">
<path d="M6 17.5C6 18.3284 6.67157 19 7.5 19C8.32843 19 9 18.3284 9 17.5V16C9 14.3431 10.3431 13 12 13C13.6569 13 15 14.3431 15 16V17.5C15 18.3284 15.6716 19 16.5 19C17.3284 19 18 18.3284 18 17.5V11.5C18 10.5557 17.5554 9.66656 16.8 9.1L13.8 6.85C12.7333 6.05 11.2667 6.05 10.2 6.85L7.2 9.1C6.44458 9.66656 6 10.5557 6 11.5V17.5ZM7 21C5.34315 21 4 19.6569 4 18V10.5C4 9.55573 4.44458 8.66656 5.2 8.1L10.2 4.35C11.2667 3.55 12.7333 3.55 13.8 4.35L18.8 8.1C19.5554 8.66656 20 9.55573 20 10.5V18C20 19.6569 18.6569 21 17 21H16C14.3431 21 13 19.6569 13 18V16C13 15.4477 12.5523 15 12 15C11.4477 15 11 15.4477 11 16V18C11 19.6569 9.65685 21 8 21H7Z" fill="white"/>
</g>
</svg>
