<svg width="32" height="32" viewBox="0 0 32 32" fill="none" xmlns="http://www.w3.org/2000/svg">
<path fill-rule="evenodd" clip-rule="evenodd" d="M16.8533 22.1462L19.2643 19.7357C19.4152 19.5848 19.5 19.3801 19.5 19.1667C19.5 18.7398 19.3304 18.3304 19.0286 18.0286L16.8533 15.8536C16.6269 15.6273 16.32 15.5001 16 15.5001C15.6799 15.5001 15.373 15.6273 15.1466 15.8536L12.9714 18.0286C12.6696 18.3304 12.5 18.7398 12.5 19.1667C12.5 19.3801 12.5848 19.5848 12.7357 19.7357L15.1461 22.1461C15.3725 22.3725 15.6796 22.4997 15.9997 22.4997C16.3199 22.4997 16.6269 22.3726 16.8533 22.1462Z" fill="#B963FF"/>
<path fill-rule="evenodd" clip-rule="evenodd" d="M32 11.591V11.5355C32 9.58291 30.4171 8 28.4645 8C27.5268 8 26.6275 8.37249 25.9645 9.03553L24.4432 10.5568L24.396 10.6039L23.6472 11.3528L22.8173 12.1827C22.4531 12.5469 21.8314 12.3818 21.6959 11.8849L21.387 10.7525L21.1084 9.73087L21.0909 9.66649L19.7893 4.89429C19.3233 3.18548 17.7712 2 16 2C14.2288 2 12.6767 3.18548 12.2106 4.89429L10.9091 9.66649L10.8916 9.73087L10.6129 10.7525L10.3041 11.8849C10.1686 12.3818 9.5469 12.5469 9.18274 12.1827L8.35275 11.3528L7.60395 10.6039L7.55676 10.5568L6.03553 9.03553C5.37249 8.37249 4.47321 8 3.53553 8C1.58291 8 0 9.58291 0 11.5355V11.591C0 11.8628 0.0308505 12.1337 0.0919609 12.3985L2.69088 23.6605C2.88587 24.5054 3.46083 25.2127 4.24821 25.5761C11.7048 29.0176 20.2952 29.0176 27.7518 25.5761C28.5392 25.2127 29.1141 24.5054 29.3091 23.6605L31.908 12.3985C31.9691 12.1337 32 11.8628 32 11.591ZM7.06141 14.3041C9.05438 16.297 12.4568 15.3934 13.1984 12.6743L15.1049 5.68364C15.215 5.28001 15.5816 5 16 5C16.4184 5 16.785 5.28001 16.8951 5.68364L18.8016 12.6743C19.5432 15.3935 22.9456 16.297 24.9386 14.3041L28.0858 11.1569C28.1862 11.0564 28.3224 11 28.4645 11C28.7602 11 29 11.2398 29 11.5355V11.591C29 11.6358 28.9949 11.6803 28.9849 11.7239L26.4076 22.8922C19.798 25.9122 12.202 25.9122 5.59243 22.8922L3.01514 11.7239C3.00508 11.6803 3 11.6358 3 11.591V11.5355C3 11.2398 3.23977 11 3.53553 11C3.67757 11 3.81378 11.0564 3.91421 11.1569L7.06141 14.3041Z" fill="#B963FF"/>
</svg>
