<svg width="32" height="32" viewBox="0 0 32 32" fill="none" xmlns="http://www.w3.org/2000/svg">
<path fill-rule="evenodd" clip-rule="evenodd" d="M29.9603 3.65237C30.5967 3.12202 30.6827 2.17618 30.1523 1.53976C29.622 0.903346 28.6761 0.81736 28.0397 1.34771L20.7515 7.42123C20.0864 7.9755 19.1818 8.14617 18.3605 7.87239L14.05 6.43558C11.912 5.72289 9.55548 6.3867 8.10378 8.11059L1.85263 15.5338C1.31901 16.1675 1.40012 17.1138 2.0338 17.6474C2.66747 18.181 3.61375 18.0999 4.14737 17.4662L10.3985 10.043C11.0584 9.25941 12.1295 8.95768 13.1014 9.28163L17.4118 10.7184C19.2188 11.3208 21.2088 10.9453 22.672 9.7259L29.9603 3.65237ZM27 16H23C22.4477 16 22 16.4478 22 17V21V26C22 26.5523 22.4477 27 23 27H26H27C27.5523 27 28 26.5523 28 26V17C28 16.4478 27.5523 16 27 16ZM19 26C19 26.5523 18.5523 27 18 27H14C13.4477 27 13 26.5523 13 26V25V21C13 20.4478 13.4477 20 14 20H18C18.5523 20 19 20.4478 19 21V26ZM10 26C10 26.5523 9.55229 27 9 27H7H5C4.44772 27 4 26.5523 4 26V25C4 24.4478 4.44772 24 5 24H9C9.55229 24 10 24.4478 10 25V26ZM5 30H7H9H14H18H23H26H27C29.2091 30 31 28.2092 31 26V17C31 14.7909 29.2091 13 27 13H23C20.7909 13 19 14.7909 19 17V17.1261C18.6804 17.0438 18.3453 17 18 17H14C11.7909 17 10 18.7909 10 21V21.1261C9.68038 21.0438 9.3453 21 9 21H5C2.79086 21 1 22.7909 1 25V26C1 28.2092 2.79086 30 5 30Z" fill="#B963FF"/>
</svg>
