<svg width="24" height="24" viewBox="0 0 24 24" fill="none" xmlns="http://www.w3.org/2000/svg">
<mask id="mask0_95_209" style="mask-type:alpha" maskUnits="userSpaceOnUse" x="0" y="0" width="24" height="24">
<rect width="24" height="24" transform="matrix(4.37114e-08 1 1 -4.37114e-08 0 0)" fill="#D9D9D9"/>
</mask>
<g mask="url(#mask0_95_209)">
<path d="M21 9C21 7.9 20.6083 6.95833 19.825 6.175C19.0417 5.39167 18.1 5 17 5L8.825 5C8.60833 4.41667 8.24583 3.9375 7.7375 3.5625C7.22917 3.1875 6.65 3 6 3C5.16667 3 4.45833 3.29167 3.875 3.875C3.29167 4.45833 3 5.16667 3 6C3 6.83333 3.29167 7.54167 3.875 8.125C4.45833 8.70833 5.16667 9 6 9C6.65 9 7.22917 8.8125 7.7375 8.4375C8.24583 8.0625 8.60833 7.58333 8.825 7L17 7C17.55 7 18.0208 7.19583 18.4125 7.5875C18.8042 7.97917 19 8.45 19 9C19 9.55 18.8042 10.0208 18.4125 10.4125C18.0208 10.8042 17.55 11 17 11L7 11C5.9 11 4.95833 11.3917 4.175 12.175C3.39167 12.9583 3 13.9 3 15C3 16.1 3.39167 17.0417 4.175 17.825C4.95833 18.6083 5.9 19 7 19L15.175 19C15.3917 19.5833 15.7542 20.0625 16.2625 20.4375C16.7708 20.8125 17.35 21 18 21C18.8333 21 19.5417 20.7083 20.125 20.125C20.7083 19.5417 21 18.8333 21 18C21 17.1667 20.7083 16.4583 20.125 15.875C19.5417 15.2917 18.8333 15 18 15C17.35 15 16.7667 15.1875 16.25 15.5625C15.7333 15.9375 15.375 16.4167 15.175 17L7 17C6.45 17 5.97917 16.8042 5.5875 16.4125C5.19583 16.0208 5 15.55 5 15C5 14.45 5.19583 13.9792 5.5875 13.5875C5.97917 13.1958 6.45 13 7 13L17 13C18.1 13 19.0417 12.6083 19.825 11.825C20.6083 11.0417 21 10.1 21 9ZM7 6C7 6.28333 6.90417 6.52083 6.7125 6.7125C6.52083 6.90417 6.28333 7 6 7C5.71667 7 5.47917 6.90417 5.2875 6.7125C5.09583 6.52083 5 6.28333 5 6C5 5.71667 5.09583 5.47917 5.2875 5.2875C5.47917 5.09583 5.71667 5 6 5C6.28333 5 6.52083 5.09583 6.7125 5.2875C6.90417 5.47917 7 5.71667 7 6ZM19 18C19 18.2833 18.9042 18.5208 18.7125 18.7125C18.5208 18.9042 18.2833 19 18 19C17.7167 19 17.4792 18.9042 17.2875 18.7125C17.0958 18.5208 17 18.2833 17 18C17 17.7167 17.0958 17.4792 17.2875 17.2875C17.4792 17.0958 17.7167 17 18 17C18.2833 17 18.5208 17.0958 18.7125 17.2875C18.9042 17.4792 19 17.7167 19 18Z" fill="white"/>
</g>
</svg>
