<svg width="24" height="24" viewBox="0 0 24 24" fill="none" xmlns="http://www.w3.org/2000/svg">
<path fill-rule="evenodd" clip-rule="evenodd" d="M19.9393 0C20.5251 0 21 0.474874 21 1.06066V3H22.9393C23.5251 3 24 3.47487 24 4.06066C24 4.34196 23.8882 4.61175 23.6893 4.81066L21.5 7C21.1799 7.32014 20.7456 7.5 20.2929 7.5H18.75H18.091L12.7955 12.7955C12.3562 13.2348 11.6438 13.2348 11.2045 12.7955C10.7652 12.3562 10.7652 11.6438 11.2045 11.2045L16.5 5.90901V5.25V3.70711C16.5 3.25435 16.6799 2.82014 17 2.5L19.1893 0.31066C19.3882 0.111747 19.658 0 19.9393 0ZM3.75 12C3.75 7.44365 7.44365 3.75 12 3.75C12.5652 3.75 13.116 3.80667 13.6474 3.91428C14.2564 4.03759 14.85 3.64389 14.9733 3.03493C15.0966 2.42597 14.7029 1.83235 14.094 1.70904C13.4164 1.57183 12.716 1.5 12 1.5C6.20101 1.5 1.5 6.20101 1.5 12C1.5 17.799 6.20101 22.5 12 22.5C17.799 22.5 22.5 17.799 22.5 12C22.5 11.2818 22.4277 10.5794 22.2897 9.89987C22.166 9.29099 21.5722 8.89765 20.9633 9.02133C20.3544 9.14501 19.9611 9.73887 20.0847 10.3478C20.193 10.8807 20.25 11.4331 20.25 12C20.25 16.5563 16.5563 20.25 12 20.25C7.44365 20.25 3.75 16.5563 3.75 12ZM11.7953 8.25544C12.4157 8.22223 12.8918 7.69234 12.8586 7.07191C12.8254 6.45148 12.2955 5.97544 11.675 6.00866C8.51192 6.17799 6 8.79526 6 12C6 15.3137 8.68629 18 12 18C15.1618 18 17.7515 15.5551 17.9832 12.4519C18.0294 11.8323 17.5647 11.2925 16.9451 11.2462C16.3255 11.2 15.7857 11.6647 15.7394 12.2843C15.5948 14.222 13.9753 15.75 12 15.75C9.92893 15.75 8.25 14.071 8.25 12C8.25 9.99761 9.81994 8.36119 11.7953 8.25544Z" fill="#B963FF"/>
</svg>
