<svg width="49" height="48" viewBox="0 0 49 48" fill="none" xmlns="http://www.w3.org/2000/svg">
<path d="M1.5 12C1.5 5.92487 6.42487 1 12.5 1H36.5C42.5751 1 47.5 5.92487 47.5 12V36C47.5 42.0751 42.5751 47 36.5 47H12.5C6.42487 47 1.5 42.0751 1.5 36V12Z" stroke="#752E99" stroke-width="2"/>
<path fill-rule="evenodd" clip-rule="evenodd" d="M30.9238 33.528L34.4876 15.7142C34.5794 15.2548 34.145 14.8716 33.724 15.0408L13.8653 23.0018C13.3752 23.198 13.3794 23.9191 13.8709 24.1105L18.7098 25.9871L20.5827 32.2465C20.7026 32.6471 21.1743 32.7953 21.4873 32.5293L24.1846 30.2445C24.4673 30.0049 24.8701 29.9931 25.1654 30.2159L30.0304 33.8863C30.3652 34.1392 30.8398 33.9486 30.9238 33.528ZM29.7378 18.9356L20.281 24.9882C19.9185 25.2206 19.7479 25.6755 19.8648 26.1013L20.8873 29.8348C20.96 30.0993 21.3294 30.0722 21.3648 29.7989L21.6305 27.7516C21.6807 27.3661 21.8576 27.0108 22.132 26.7455L29.9365 19.2066C30.0826 19.0659 29.9077 18.8271 29.7378 18.9356Z" fill="#752E99"/>
</svg>
