<svg width="49" height="48" viewBox="0 0 49 48" fill="none" xmlns="http://www.w3.org/2000/svg">
<path d="M1.5 12C1.5 5.92487 6.42487 1 12.5 1H36.5C42.5751 1 47.5 5.92487 47.5 12V36C47.5 42.0751 42.5751 47 36.5 47H12.5C6.42487 47 1.5 42.0751 1.5 36V12Z" stroke="#752E99" stroke-width="2"/>
<path d="M24.951 13.7076C26.0764 13.6904 27.1936 13.6994 28.3101 13.6904C28.3472 15.0867 28.9137 16.3435 29.815 17.2744L29.8137 17.273C30.7837 18.1468 32.046 18.7133 33.4375 18.8096L33.4567 18.8109V22.2732C32.1422 22.2402 30.9061 21.937 29.7917 21.4159L29.848 21.4392C29.309 21.1801 28.8532 20.914 28.4201 20.617L28.4558 20.6404C28.4476 23.1491 28.4641 25.6577 28.4387 28.1575C28.3678 29.4314 27.9443 30.5933 27.2651 31.5634L27.2788 31.5421C26.1431 33.1687 24.3033 34.2364 22.2113 34.2996H22.2017C22.1171 34.3037 22.0174 34.3058 21.917 34.3058C20.7277 34.3058 19.616 33.9744 18.6686 33.399L18.6961 33.4148C16.9718 32.3774 15.7825 30.6022 15.5625 28.5377L15.5597 28.5095C15.5425 28.0798 15.5343 27.6501 15.5515 27.2294C15.8883 23.9438 18.6411 21.4021 21.9872 21.4021C22.3632 21.4021 22.7317 21.4344 23.0899 21.4956L23.0514 21.4901C23.0686 22.7613 23.017 24.0332 23.017 25.3044C22.7262 25.1992 22.3907 25.138 22.0408 25.138C20.7565 25.138 19.6641 25.9589 19.2598 27.1049L19.2537 27.1256C19.1622 27.4191 19.1093 27.7567 19.1093 28.1059C19.1093 28.2476 19.1182 28.3878 19.1347 28.5253L19.1333 28.5088C19.3616 29.9154 20.5675 30.9769 22.0215 30.9769C22.0635 30.9769 22.1047 30.9762 22.146 30.9742H22.1398C23.1456 30.9439 24.0187 30.4029 24.5123 29.6033L24.5192 29.5909C24.7028 29.3352 24.8286 29.0258 24.8705 28.6896L24.8712 28.68C24.9572 27.1421 24.9228 25.6131 24.931 24.0751C24.9393 20.6129 24.9228 17.1589 24.9482 13.7056L24.951 13.7076Z" fill="#752E99"/>
</svg>
