<svg width="49" height="48" viewBox="0 0 49 48" fill="none" xmlns="http://www.w3.org/2000/svg">
<path d="M1.5 12C1.5 5.92487 6.42487 1 12.5 1H36.5C42.5751 1 47.5 5.92487 47.5 12V36C47.5 42.0751 42.5751 47 36.5 47H12.5C6.42487 47 1.5 42.0751 1.5 36V12Z" stroke="#752E99" stroke-width="2"/>
<path d="M26.2191 22.6214L32.9222 15H31.3331L25.5112 21.6174L20.8596 15H15.5L22.5209 25.011L15.5 33H17.0891L23.2287 26.0149L28.1404 33H33.5L26.2191 22.6214ZM24.0377 25.11L23.3299 24.106L17.6525 16.1736H20.0939L24.6734 22.5789L25.3812 23.5829L31.3186 31.8971H28.8772L24.0377 25.11Z" fill="#752E99" stroke="#752E99"/>
</svg>
